# xmcd
#
# Track frame offsets: 
#        187
#        20487
#        41425
#        61707
#
# Disc length: 1099 seconds
#
# Revision: 7
# Processed by: cddbd v1.5.2PL0 Copyright (c) Steve Scherf et al.
# Submitted via: ExactAudioCopyFreeDBPlugin 1.0
#
DISCID=26044904
DTITLE=林原めぐみ - 〜infinity〜 ∽
DYEAR=1998
DGENRE=Anime
TTITLE0=〜infinity〜 ∽
TTITLE1=EXTRICATION
TTITLE2=〜infinity〜 ∽ (Off Vocal Version)
TTITLE3=EXTRICATION (Off Vocal Version)
EXTD=Lost Universe OP/ED Theme Single\nReleased: 1998.04.24\nKIDA-161 
EXTD=YEAR: 1998
EXTT0=
EXTT1=
EXTT2=
EXTT3=
PLAYORDER=
